<svg width="49" height="50" xmlns="http://www.w3.org/2000/svg" xmlns:xlink="http://www.w3.org/1999/xlink" xml:space="preserve" overflow="hidden"><g transform="translate(-108 -267)"><path d="M47.0232 0.630901 47.0232 48.3691" stroke="#282E36" stroke-width="1.2618" stroke-linecap="round" stroke-linejoin="round" fill="none" transform="matrix(1 0 0 1.02041 108 267)"/><path d="M47.0232 15.6884 18.5485 15.6884" stroke="#282E36" stroke-width="1.2618" stroke-linecap="round" stroke-linejoin="round" fill="none" transform="matrix(1 0 0 1.02041 108 267)"/><path d="M47.0232 33.9425 22.6283 33.9425" stroke="#282E36" stroke-width="1.2618" stroke-linecap="round" stroke-linejoin="round" fill="none" transform="matrix(1 0 0 1.02041 108 267)"/><path d="M35.2464 4.41631 38.4429 4.41631 38.4429 9.1691 35.2464 9.1691Z" stroke="#282E36" stroke-width="1.2618" stroke-linecap="round" stroke-linejoin="round" fill="none" transform="matrix(1 0 0 1.02041 108 267)"/><path d="M31.1245 4.29013 42.4807 4.29013 42.4807 15.6464 31.1245 15.6464Z" stroke="#282E36" stroke-width="1.2618" stroke-linecap="round" stroke-linejoin="round" fill="none" transform="matrix(1 0 0 1.02041 108 267)"/><path d="M27.1708 22.5863 30.3674 22.5863 30.3674 27.3391 27.1708 27.3391Z" stroke="#1596D1" stroke-width="1.2618" stroke-linecap="round" stroke-linejoin="round" fill="none" transform="matrix(1 0 0 1.02041 108 267)"/><path d="M1.97682 30.9142C1.8927 30.6618 2.27124 30.3674 2.22918 30.073 2.18712 29.7785 2.14506 29.4841 2.14506 29.1897 2.14506 26.3296 4.45837 24.0163 7.31845 24.0163 9.25322 24.0163 10.9356 25.0678 11.8189 26.624L13.7536 27.3391 1.97682 30.9142Z" stroke="#282E36" stroke-width="1.2618" stroke-linecap="round" stroke-linejoin="round" fill="none" transform="matrix(1 0 0 1.02041 108 267)"/><path d="M11.9451 28.5167C12.0292 28.8953 12.0712 29.2318 12.0712 29.6524 12.0712 32.176 10.0103 34.2369 7.48669 34.2369 5.46781 34.2369 3.78541 32.933 3.15451 31.2086" stroke="#282E36" stroke-width="1.2618" stroke-linecap="round" stroke-linejoin="round" fill="none" transform="matrix(1 0 0 1.02041 108 267)"/><path d="M23.0489 29.8627 23.0489 22.5863 34.4052 22.5863 34.4052 33.9425 23.0489 33.9425 23.0489 33.4798" stroke="#1596D1" stroke-width="1.2618" stroke-linecap="round" stroke-linejoin="round" fill="none" transform="matrix(1 0 0 1.02041 108 267)"/><path d="M18.3803 38.6532C18.3803 41.4292 18.4223 45.5931 18.4644 48.3691" stroke="#282E36" stroke-width="1.2618" stroke-linecap="round" stroke-linejoin="round" fill="none" transform="matrix(1 0 0 1.02041 108 267)"/><path d="M18.4644 0.630901C18.3382 11.6086 18.2961 22.3339 18.3382 33.1854" stroke="#282E36" stroke-width="1.2618" stroke-linecap="round" stroke-linejoin="round" fill="none" transform="matrix(1 0 0 1.02041 108 267)"/><path d="M3.99571 48.3691 3.99571 41.7657C3.99571 39.2841 6.05665 37.2652 8.49614 37.2652L8.70644 37.2652C10.2206 37.2652 11.5665 38.0644 12.3657 39.2L21.2403 30.3253C21.9133 29.6524 23.0069 29.6944 23.5957 30.3674L23.5957 30.3674C24.1845 30.9983 24.1845 32.0077 23.5957 32.5966L12.4077 45.1305 12.3657 48.285" stroke="#282E36" stroke-width="1.2618" stroke-linecap="round" stroke-linejoin="round" fill="none" transform="matrix(1 0 0 1.02041 108 267)"/></g></svg>