<svg width="52" height="43" xmlns="http://www.w3.org/2000/svg" xmlns:xlink="http://www.w3.org/1999/xlink" xml:space="preserve" overflow="hidden"><g transform="translate(-282 -274)"><path d="M2.50451 4.45656 17.2369 4.45656 17.2369 19.2626 2.50451 19.2626Z" stroke="#282E36" stroke-width="1.10493" stroke-linecap="round" stroke-linejoin="round" fill="none" transform="matrix(1.01063 0 0 1 282 274.046)"/><path d="M7.88185 4.45656 11.7859 4.45656 11.7859 11.0125 7.88185 11.0125Z" stroke="#282E36" stroke-width="1.10493" stroke-linecap="round" stroke-linejoin="round" fill="none" transform="matrix(1.01063 0 0 1 282 274.046)"/><path d="M34.3634 19.2626 19.631 19.2626 19.631 4.45656 34.3634 4.45656 34.3634 17.0896" stroke="#1596D1" stroke-width="1.10493" stroke-linecap="round" stroke-linejoin="round" fill="none" transform="matrix(1.01063 0 0 1 282 274.046)"/><path d="M25.0451 4.45656 28.9492 4.45656 28.9492 11.0125 25.0451 11.0125Z" stroke="#1596D1" stroke-width="1.10493" stroke-linecap="round" stroke-linejoin="round" fill="none" transform="matrix(1.01063 0 0 1 282 274.046)"/><path d="M2.50451 21.3988 17.2369 21.3988 17.2369 36.2049 2.50451 36.2049Z" stroke="#282E36" stroke-width="1.10493" stroke-linecap="round" stroke-linejoin="round" fill="none" transform="matrix(1.01063 0 0 1 282 274.046)"/><path d="M7.88185 21.3988 11.7859 21.3988 11.7859 27.9548 7.88185 27.9548Z" stroke="#282E36" stroke-width="1.10493" stroke-linecap="round" stroke-linejoin="round" fill="none" transform="matrix(1.01063 0 0 1 282 274.046)"/><path d="M19.631 21.3988 34.3634 21.3988 34.3634 36.2049 19.631 36.2049Z" stroke="#282E36" stroke-width="1.10493" stroke-linecap="round" stroke-linejoin="round" fill="none" transform="matrix(1.01063 0 0 1 282 274.046)"/><path d="M25.0451 21.3988 28.9492 21.3988 28.9492 27.9548 25.0451 27.9548Z" stroke="#282E36" stroke-width="1.10493" stroke-linecap="round" stroke-linejoin="round" fill="none" transform="matrix(1.01063 0 0 1 282 274.046)"/><path d="M0.552466 36.2418 35.8735 36.2418" stroke="#282E36" stroke-width="1.10493" stroke-linecap="round" stroke-linejoin="round" fill="none" transform="matrix(1.01063 0 0 1 282 274.046)"/><path d="M6.81375 36.2049 6.81375 39.7407 3.13064 39.7407 3.13064 36.2049" stroke="#282E36" stroke-width="1.10493" stroke-linecap="round" stroke-linejoin="round" fill="none" transform="matrix(1.01063 0 0 1 282 274.046)"/><path d="M19.8519 36.2049 19.8519 39.7407 16.132 39.7407 16.132 36.2049" stroke="#282E36" stroke-width="1.10493" stroke-linecap="round" stroke-linejoin="round" fill="none" transform="matrix(1.01063 0 0 1 282 274.046)"/><path d="M32.8165 36.2049 32.8165 39.7407 29.0965 39.7407 29.0965 36.2049" stroke="#282E36" stroke-width="1.10493" stroke-linecap="round" stroke-linejoin="round" fill="none" transform="matrix(1.01063 0 0 1 282 274.046)"/><path d="M43.4975 18.526 43.7185 22.7616 40.0354 27.1813C39.667 27.5865 39.4461 28.0653 39.3724 28.6177 39.0041 31.0118 37.936 38.1201 37.936 38.378 37.936 38.6726 37.8623 39.9249 39.2987 40.0354 40.5878 40.109 40.772 38.7094 40.772 38.7094L42.724 29.87 48.175 25.082C48.8748 24.4558 49.3168 23.6087 49.3536 22.6879 49.5009 20.5886 49.7219 16.795 49.6483 14.8429 49.5746 12.1174 47.5121 11.3808 46.223 11.4176 44.3446 11.4545 43.5711 12.4489 43.5711 12.4489L39.7775 16.9055 35.763 16.8686C35.763 16.8686 34.2529 16.7213 34.0687 17.8999 33.9214 18.7838 34.5475 19.2258 35.2473 19.2626L41.6559 19.7414 45.56 16.0952" stroke="#282E36" stroke-width="1.10493" stroke-linecap="round" stroke-linejoin="round" fill="none" transform="matrix(1.01063 0 0 1 282 274.046)"/><path d="M49.1695 6.37177C49.1695 8.03975 47.8173 9.39192 46.1493 9.39192 44.4813 9.39192 43.1292 8.03975 43.1292 6.37177 43.1292 4.70379 44.4813 3.35163 46.1493 3.35163 47.8173 3.35163 49.1695 4.70379 49.1695 6.37177Z" stroke="#282E36" stroke-width="1.10493" stroke-linecap="round" stroke-linejoin="round" fill="none" transform="matrix(1.01063 0 0 1 282 274.046)"/><path d="M46.002 6.5191C46.002 6.5191 44.2709 8.47114 42.2821 8.21333" stroke="#1596D1" stroke-width="0.552466" stroke-linecap="round" stroke-linejoin="round" fill="none" transform="matrix(1.01063 0 0 1 282 274.046)"/><path d="M46.1493 6.33494 46.1493 2.90965" stroke="#1596D1" stroke-width="1.10493" stroke-linecap="round" stroke-linejoin="round" fill="none" transform="matrix(1.01063 0 0 1 282 274.046)"/><path d="M46.5913 6.33494C46.5913 6.5587 46.4099 6.74008 46.1861 6.74008 45.9624 6.74008 45.781 6.5587 45.781 6.33494 45.781 6.11119 45.9624 5.9298 46.1861 5.9298 46.4099 5.9298 46.5913 6.11119 46.5913 6.33494Z" stroke="#1596D1" stroke-width="1.10493" stroke-linecap="round" stroke-linejoin="round" fill="none" transform="matrix(1.01063 0 0 1 282 274.046)"/><path d="M48.8012 24.7873 48.8012 29.9437 50.8637 38.0465C50.8637 38.0465 51.1583 39.2251 50.0902 39.7039 49.1695 40.0722 48.5802 39.4829 48.2119 38.8568 47.954 38.3411 45.781 31.6747 45.2285 30.0541 45.1549 29.8332 45.0812 29.6122 45.1549 29.3544L45.2285 27.8811" stroke="#282E36" stroke-width="1.10493" stroke-linecap="round" stroke-linejoin="round" fill="none" transform="matrix(1.01063 0 0 1 282 274.046)"/><path d="M41.4718 9.06044 41.4718 9.06044C41.214 9.06044 40.993 8.83945 40.993 8.58164L40.993 7.88185C40.993 7.62403 41.214 7.40304 41.4718 7.40304L41.4718 7.40304C41.7296 7.40304 41.9506 7.62403 41.9506 7.88185L41.9506 8.58164C42.0242 8.83945 41.8033 9.06044 41.4718 9.06044Z" stroke="#1596D1" stroke-width="0.552466" stroke-linecap="round" stroke-linejoin="round" fill="none" transform="matrix(1.01063 0 0 1 282 274.046)"/></g></svg>