<svg width="49" height="49" xmlns="http://www.w3.org/2000/svg" xmlns:xlink="http://www.w3.org/1999/xlink" xml:space="preserve" overflow="hidden"><g transform="translate(-1034 -593)"><path d="M1059.24 608.52 1059.24 641.159 1082.07 641.159 1082.07 617.227 1073.41 608.52 1059.24 608.52Z" stroke="#282E36" stroke-width="1.17768" stroke-linecap="round" stroke-linejoin="round" fill="none"/><path d="M1073.41 608.52 1073.41 617.227 1082.12 617.227" stroke="#282E36" stroke-width="1.17768" stroke-linecap="round" stroke-linejoin="round" fill="none"/><path d="M1077.66 621.937 1071.14 621.937" stroke="#1596D1" stroke-width="1.2618" stroke-linecap="round" stroke-linejoin="round" fill="none"/><path d="M1063.48 621.769 1064.91 623.409 1067.82 620.507" stroke="#1596D1" stroke-width="1.2618" stroke-linecap="round" stroke-linejoin="round" fill="none"/><path d="M1077.66 628.877 1071.14 628.877" stroke="#1596D1" stroke-width="1.2618" stroke-linecap="round" stroke-linejoin="round" fill="none"/><path d="M1063.48 628.709 1064.91 630.349 1067.82 627.447" stroke="#1596D1" stroke-width="1.2618" stroke-linecap="round" stroke-linejoin="round" fill="none"/><path d="M1077.66 635.817 1071.14 635.817" stroke="#1596D1" stroke-width="1.2618" stroke-linecap="round" stroke-linejoin="round" fill="none"/><path d="M1063.48 635.649 1064.91 637.289 1067.82 634.387" stroke="#1596D1" stroke-width="1.2618" stroke-linecap="round" stroke-linejoin="round" fill="none"/><path d="M1058.86 628.499 1036.1 628.499C1035.43 628.499 1034.88 627.952 1034.88 627.279L1034.88 594.977C1034.88 594.304 1035.43 593.757 1036.1 593.757L1068.45 593.757C1069.12 593.757 1069.67 594.304 1069.67 594.977L1069.67 608.31" stroke="#282E36" stroke-width="1.2618" stroke-linecap="round" stroke-linejoin="round" fill="none"/><path d="M1048.26 593.757 1048.26 606.796 1056.29 606.796 1056.29 593.757" stroke="#282E36" stroke-width="1.2618" stroke-linecap="round" stroke-linejoin="round" fill="none"/><path d="M1038.67 622.021 1045.48 622.021 1045.48 624.755 1038.67 624.755 1038.67 622.021Z" stroke="#282E36" stroke-width="0.953797" stroke-linecap="round" stroke-linejoin="round" fill="none"/></g></svg>