<svg width="49" height="50" xmlns="http://www.w3.org/2000/svg" xmlns:xlink="http://www.w3.org/1999/xlink" xml:space="preserve" overflow="hidden"><g transform="translate(-462 -267)"><path d="M35.8517 16.17 46.8767 16.17 46.8767 25.6025 35.8517 25.6025Z" stroke="#1596D1" stroke-width="1.225" stroke-linecap="round" stroke-linejoin="round" fill="none" transform="matrix(1 0 0 1.02041 462 267)"/><path d="M41.405 16.17 41.405 17.8442" stroke="#1596D1" stroke-width="1.225" stroke-linecap="round" stroke-linejoin="round" fill="none" transform="matrix(1 0 0 1.02041 462 267)"/><path d="M36.8317 44.4267C36.8317 46.5916 35.0766 48.3467 32.9117 48.3467 30.7467 48.3467 28.9917 46.5916 28.9917 44.4267 28.9917 42.2617 30.7467 40.5067 32.9117 40.5067 35.0766 40.5067 36.8317 42.2617 36.8317 44.4267Z" stroke="#1596D1" stroke-width="1.225" stroke-linecap="round" stroke-linejoin="round" fill="none" transform="matrix(1 0 0 1.02041 462 267)"/><path d="M5.7575 45.9375C5.7575 47.2906 4.6606 48.3875 3.3075 48.3875 1.9544 48.3875 0.8575 47.2906 0.8575 45.9375 0.8575 44.5844 1.9544 43.4875 3.3075 43.4875 4.6606 43.4875 5.7575 44.5844 5.7575 45.9375Z" stroke="#1596D1" stroke-width="1.225" stroke-linecap="round" stroke-linejoin="round" fill="none" transform="matrix(1 0 0 1.02041 462 267)"/><path d="M3.14417 40.8742 3.14417 27.7667C3.14417 24.7858 5.55333 22.3767 8.53417 22.3767L8.53417 22.3767C11.515 22.3767 13.9242 24.7858 13.9242 27.7667L13.9242 32.2583 32.8708 37.4442 22.1725 4.0425 8.575 4.0425 8.575 22.295" stroke="#282E36" stroke-width="1.225" stroke-linecap="round" stroke-linejoin="round" fill="none" transform="matrix(1 0 0 1.02041 462 267)"/><path d="M23.2342 22.0908 28.665 24.2958" stroke="#282E36" stroke-width="1.225" stroke-linecap="round" stroke-linejoin="round" fill="none" transform="matrix(1 0 0 1.02041 462 267)"/><path d="M23.8467 20.5392 22.6217 23.6425" stroke="#282E36" stroke-width="1.225" stroke-linecap="round" stroke-linejoin="round" fill="none" transform="matrix(1 0 0 1.02041 462 267)"/><path d="M32.9117 0.653333 32.9117 37.4442" stroke="#282E36" stroke-width="1.225" stroke-linecap="round" stroke-linejoin="round" fill="none" transform="matrix(1 0 0 1.02041 462 267)"/><path d="M32.9117 28.42 48.1425 28.42" stroke="#282E36" stroke-width="1.225" stroke-linecap="round" stroke-linejoin="round" fill="none" transform="matrix(1 0 0 1.02041 462 267)"/><path d="M8.12583 45.9375 26.6642 45.9375" stroke="#282E36" stroke-width="1.225" stroke-linecap="round" stroke-linejoin="round" fill="none" transform="matrix(1 0 0 1.02041 462 267)"/></g></svg>