<svg width="173" height="167" xmlns="http://www.w3.org/2000/svg" xmlns:xlink="http://www.w3.org/1999/xlink" xml:space="preserve" overflow="hidden"><defs><filter id="fx0" x="-10%" y="-10%" width="120%" height="120%" filterUnits="userSpaceOnUse" primitiveUnits="userSpaceOnUse"><feComponentTransfer color-interpolation-filters="sRGB"><feFuncR type="discrete" tableValues="0 0"/><feFuncG type="discrete" tableValues="0 0"/><feFuncB type="discrete" tableValues="0 0"/><feFuncA type="linear" slope="0.4" intercept="0"/></feComponentTransfer><feGaussianBlur stdDeviation="6.11111 6.11111"/></filter><clipPath id="clip1"><rect x="2222" y="1281" width="173" height="167"/></clipPath></defs><g clip-path="url(#clip1)" transform="translate(-2222 -1281)"><g filter="url(#fx0)" transform="translate(2221 1280)"><g><path d="M19.6848 27.948C19.6848 23.6505 23.1686 20.1667 27.466 20.1667L147.534 20.1667C151.831 20.1667 155.315 23.6505 155.315 27.948L155.315 141.085C155.315 145.383 151.831 148.867 147.534 148.867L27.466 148.867C23.1686 148.867 19.6848 145.383 19.6848 141.085Z" fill="#FFFFFF" fill-rule="evenodd"/></g></g><path d="M2240 1298.86C2240 1294.52 2243.52 1291 2247.86 1291L2369.14 1291C2373.48 1291 2377 1294.52 2377 1298.86L2377 1413.14C2377 1417.48 2373.48 1421 2369.14 1421L2247.86 1421C2243.52 1421 2240 1417.48 2240 1413.14Z" fill="#FFFFFF" fill-rule="evenodd"/><g><g><g><path d="M2284.49 1329.43C2284.49 1331.81 2282.57 1333.73 2280.19 1333.73 2277.82 1333.73 2275.89 1331.81 2275.89 1329.43 2275.89 1327.06 2277.82 1325.13 2280.19 1325.13 2282.57 1325.13 2284.49 1327.06 2284.49 1329.43Z" stroke="#1596D1" stroke-width="1.67513" stroke-linecap="round" stroke-linejoin="round" fill="none"/><path d="M2284.49 1354C2284.49 1356.37 2282.57 1358.3 2280.19 1358.3 2277.82 1358.3 2275.89 1356.37 2275.89 1354 2275.89 1351.63 2277.82 1349.7 2280.19 1349.7 2282.57 1349.7 2284.49 1351.63 2284.49 1354Z" stroke="#1596D1" stroke-width="1.67513" stroke-linecap="round" stroke-linejoin="round" fill="none"/><path d="M2284.49 1378.57C2284.49 1380.94 2282.57 1382.87 2280.19 1382.87 2277.82 1382.87 2275.89 1380.94 2275.89 1378.57 2275.89 1376.19 2277.82 1374.27 2280.19 1374.27 2282.57 1374.27 2284.49 1376.19 2284.49 1378.57Z" stroke="#1596D1" stroke-width="1.67513" stroke-linecap="round" stroke-linejoin="round" fill="none"/><path d="M2292.14 1329.43 2340.11 1329.43" stroke="#282E36" stroke-width="1.67513" stroke-linecap="round" stroke-linejoin="round" fill="none"/><path d="M2292.14 1354 2340.11 1354" stroke="#282E36" stroke-width="1.67513" stroke-linecap="round" stroke-linejoin="round" fill="none"/><path d="M2292.14 1378.57 2340.11 1378.57" stroke="#282E36" stroke-width="1.67513" stroke-linecap="round" stroke-linejoin="round" fill="none"/></g></g></g></g></svg>