<svg width="49" height="49" xmlns="http://www.w3.org/2000/svg" xmlns:xlink="http://www.w3.org/1999/xlink" xml:space="preserve" overflow="hidden"><g transform="translate(-1154 -593)"><path d="M1157.86 616.547 1176.3 616.547C1176.72 616.547 1177.05 616.878 1177.05 617.293L1177.05 635.74C1177.05 636.155 1176.72 636.486 1176.3 636.486L1157.86 636.486C1157.44 636.486 1157.11 636.155 1157.11 635.74L1157.11 617.293C1157.11 616.878 1157.44 616.547 1157.86 616.547Z" stroke="#282E36" stroke-width="1.24365" stroke-linecap="round" stroke-linejoin="round" fill="none"/><path d="M1164.61 616.547 1164.61 624.879 1169.59 624.879 1169.59 616.547" stroke="#282E36" stroke-width="1.24365" stroke-linecap="round" stroke-linejoin="round" fill="none"/><path d="M1173.15 593.746 1191.6 593.746C1192.01 593.746 1192.35 594.078 1192.35 594.492L1192.35 612.94C1192.35 613.354 1192.01 613.686 1191.6 613.686L1173.15 613.686C1172.74 613.686 1172.41 613.354 1172.41 612.94L1172.41 594.492C1172.41 594.078 1172.74 593.746 1173.15 593.746Z" stroke="#1596D1" stroke-width="1.24365" stroke-linecap="round" stroke-linejoin="round" fill="none"/><path d="M1179.87 593.746 1179.87 602.037 1184.88 602.037 1184.88 593.746" stroke="#1596D1" stroke-width="1.24365" stroke-linecap="round" stroke-linejoin="round" fill="none"/><path d="M1180.74 616.547 1199.19 616.547C1199.6 616.547 1199.93 616.878 1199.93 617.293L1199.93 635.74C1199.93 636.155 1199.6 636.486 1199.19 636.486L1180.74 636.486C1180.32 636.486 1179.99 636.155 1179.99 635.74L1179.99 617.293C1180.03 616.878 1180.37 616.547 1180.74 616.547Z" stroke="#282E36" stroke-width="1.24365" stroke-linecap="round" stroke-linejoin="round" fill="none"/><path d="M1187.5 616.547 1187.5 624.879 1192.47 624.879 1192.47 616.547" stroke="#282E36" stroke-width="1.24365" stroke-linecap="round" stroke-linejoin="round" fill="none"/><path d="M1158.23 636.445 1163 636.445 1163 641.212 1158.23 641.212Z" stroke="#282E36" stroke-width="1.24365" stroke-linecap="round" stroke-linejoin="round" fill="none"/><path d="M1175.76 636.445 1180.53 636.445 1180.53 641.212 1175.76 641.212Z" stroke="#282E36" stroke-width="1.24365" stroke-linecap="round" stroke-linejoin="round" fill="none"/><path d="M1193.3 636.445 1198.07 636.445 1198.07 641.212 1193.3 641.212Z" stroke="#282E36" stroke-width="1.24365" stroke-linecap="round" stroke-linejoin="round" fill="none"/><path d="M1154.87 636.486 1202.13 636.486" stroke="#282E36" stroke-width="1.24365" stroke-linecap="round" stroke-linejoin="round" fill="none"/></g></svg>