<svg width="49" height="49" xmlns="http://www.w3.org/2000/svg" xmlns:xlink="http://www.w3.org/1999/xlink" xml:space="preserve" overflow="hidden"><g transform="translate(-795 -593)"><path d="M803.374 611.323C804.825 612.733 806.276 614.018 807.727 615.469 807.893 615.635 808.39 615.842 808.639 615.8L817.22 614.557C817.676 613.728 817.51 612.028 816.142 611.655L809.799 611.821 805.488 606.597C803.167 603.612 797.197 604.649 797.446 609.872L797.819 619.117C797.777 620.858 798.565 622.143 799.643 623.014L806.4 628.071 808.763 639.264C808.763 639.264 809.053 641.254 810.794 641.005 812.453 640.715 812.287 639.388 812.204 638.559L810.546 626.413C810.421 625.584 810.048 624.879 809.426 624.299L805.281 619.656C805.032 619.365 804.991 619.034 804.991 618.744L805.239 613.354" stroke="#282E36" stroke-width="1.24365" stroke-linecap="round" stroke-linejoin="round" fill="none"/><path d="M798.358 621.438 798.441 628.817 796.119 637.896C796.119 637.896 795.332 640.342 796.865 640.839 798.026 641.212 799.187 640.549 799.519 639.098L802.338 630.268C802.876 628.651 803.042 628.112 803.001 626.952 803.001 626.91 802.918 626.04 802.876 625.501" stroke="#282E36" stroke-width="1.24365" stroke-linecap="round" stroke-linejoin="round" fill="none"/><path d="M843.088 636.404 825.884 638.932" stroke="#282E36" stroke-width="1.24365" stroke-linecap="round" stroke-linejoin="round" fill="none"/><path d="M823.894 637.233C825.055 637.233 825.926 638.145 825.926 639.264 825.926 640.425 825.014 641.295 823.894 641.295 822.734 641.295 821.863 640.383 821.863 639.264 821.78 638.186 822.734 637.233 823.894 637.233L823.894 637.233Z" stroke="#282E36" stroke-width="1.24365" stroke-linecap="round" stroke-linejoin="round" fill="none"/><path d="M817.469 613.479 819.5 613.852 823.148 637.191" stroke="#282E36" stroke-width="1.24365" stroke-linecap="round" stroke-linejoin="round" fill="none"/><path d="M806.069 598.306C806.069 600.596 804.213 602.452 801.923 602.452 799.633 602.452 797.777 600.596 797.777 598.306 797.777 596.017 799.633 594.161 801.923 594.161 804.213 594.161 806.069 596.017 806.069 598.306Z" stroke="#282E36" stroke-width="1.24365" stroke-linecap="round" stroke-linejoin="round" fill="none"/><path d="M822.941 614.598 824.267 623.635 830.32 622.723 828.952 613.645Z" stroke="#1596D1" stroke-width="1.24365" stroke-linecap="round" stroke-linejoin="round" fill="none"/><path d="M824.723 626.579 826.008 635.616 832.061 634.704 830.776 625.667Z" stroke="#1596D1" stroke-width="1.24365" stroke-linecap="round" stroke-linejoin="round" fill="none"/><path d="M831.978 613.396 834.921 634.455 840.891 633.585 837.989 612.484Z" stroke="#1596D1" stroke-width="1.24365" stroke-linecap="round" stroke-linejoin="round" fill="none"/><path d="M801.964 593.663 801.882 598.057" stroke="#1596D1" stroke-width="1.03638" stroke-linecap="round" stroke-linejoin="round" fill="none"/><path d="M802.42 598.306C802.42 598.581 802.198 598.804 801.923 598.804 801.648 598.804 801.426 598.581 801.426 598.306 801.426 598.031 801.648 597.809 801.923 597.809 802.198 597.809 802.42 598.031 802.42 598.306Z" stroke="#1596D1" stroke-width="1.24365" stroke-miterlimit="10" fill="none"/><path d="M806.773 600.586C805.944 600.628 804.991 600.503 804.162 600.089 803.167 599.633 802.379 598.887 801.923 598.057" stroke="#1596D1" stroke-width="0.414552" stroke-linecap="round" stroke-linejoin="round" fill="none"/><path d="M807.478 601.374 807.478 601.374C807.146 601.374 806.939 601.125 806.939 600.876L806.939 600.42C806.939 600.13 807.188 599.923 807.437 599.923L807.478 599.923C807.768 599.923 807.975 600.172 807.975 600.42L807.975 600.876C807.975 601.167 807.727 601.374 807.478 601.374Z" stroke="#1596D1" stroke-width="0.414552" stroke-linecap="round" stroke-linejoin="round" fill="none"/></g></svg>