<svg width="49" height="48" xmlns="http://www.w3.org/2000/svg" xmlns:xlink="http://www.w3.org/1999/xlink" xml:space="preserve" overflow="hidden"><g transform="translate(-436 -594)"><path d="M0.561069 0.561069 4.46985 0.561069 4.46985 46.9016 0.561069 46.9016Z" stroke="#282E36" stroke-width="1.12214" stroke-linecap="round" stroke-linejoin="round" fill="none" transform="matrix(1 0 0 1.01045 436 594.021)"/><path d="M23.0599 5.88C23.4731 5.88 23.808 6.21493 23.808 6.62809L23.808 20.479C23.808 20.8922 23.4731 21.2271 23.0599 21.2271L9.20901 21.2271C8.79585 21.2271 8.46092 20.8922 8.46092 20.479L8.46092 6.62809C8.46092 6.21493 8.79585 5.88 9.20901 5.88Z" stroke="#282E36" stroke-width="1.12214" stroke-linecap="round" stroke-linejoin="round" fill="none" transform="matrix(1 0 0 1.01045 436 594.021)"/><path d="M14.2175 5.88 14.2175 12.2762 18.0552 12.2762 18.0552 5.88" stroke="#282E36" stroke-width="1.12214" stroke-linecap="round" stroke-linejoin="round" fill="none" transform="matrix(1 0 0 1.01045 436 594.021)"/><path d="M42.5701 5.88C42.9833 5.88 43.3182 6.21493 43.3182 6.62809L43.3182 20.479C43.3182 20.8922 42.9833 21.2271 42.5701 21.2271L28.7192 21.2271C28.3061 21.2271 27.9711 20.8922 27.9711 20.479L27.9711 6.62809C27.9711 6.21493 28.3061 5.88 28.7192 5.88Z" stroke="#1596D1" stroke-width="1.12214" stroke-linecap="round" stroke-linejoin="round" fill="none" transform="matrix(1 0 0 1.01045 436 594.021)"/><path d="M33.7277 5.88 33.7277 12.2762 37.5617 12.2762 37.5617 5.88" stroke="#1596D1" stroke-width="1.12214" stroke-linecap="round" stroke-linejoin="round" fill="none" transform="matrix(1 0 0 1.01045 436 594.021)"/><path d="M23.0599 27.8178C23.4731 27.8178 23.808 28.1527 23.808 28.5659L23.808 42.4168C23.808 42.83 23.4731 43.1649 23.0599 43.1649L9.20901 43.1649C8.79585 43.1649 8.46092 42.83 8.46092 42.4168L8.46092 28.5659C8.46092 28.1527 8.79585 27.8178 9.20901 27.8178Z" stroke="#282E36" stroke-width="1.12214" stroke-linecap="round" stroke-linejoin="round" fill="none" transform="matrix(1 0 0 1.01045 436 594.021)"/><path d="M14.2175 27.814 14.2175 34.2102 18.0552 34.2102 18.0552 27.814" stroke="#282E36" stroke-width="1.12214" stroke-linecap="round" stroke-linejoin="round" fill="none" transform="matrix(1 0 0 1.01045 436 594.021)"/><path d="M42.5701 27.8178C42.9833 27.8178 43.3182 28.1527 43.3182 28.5659L43.3182 42.4168C43.3182 42.83 42.9833 43.1649 42.5701 43.1649L28.7192 43.1649C28.3061 43.1649 27.9711 42.83 27.9711 42.4168L27.9711 28.5659C27.9711 28.1527 28.3061 27.8178 28.7192 27.8178Z" stroke="#282E36" stroke-width="1.12214" stroke-linecap="round" stroke-linejoin="round" fill="none" transform="matrix(1 0 0 1.01045 436 594.021)"/><path d="M33.7277 27.814 33.7277 34.2102 37.5617 34.2102 37.5617 27.814" stroke="#282E36" stroke-width="1.12214" stroke-linecap="round" stroke-linejoin="round" fill="none" transform="matrix(1 0 0 1.01045 436 594.021)"/><path d="M4.63443 43.1649 48.4389 43.1649" stroke="#282E36" stroke-width="1.12214" stroke-linecap="round" stroke-linejoin="round" fill="none" transform="matrix(1 0 0 1.01045 436 594.021)"/><path d="M4.63443 21.2271 48.4389 21.2271" stroke="#282E36" stroke-width="1.12214" stroke-linecap="round" stroke-linejoin="round" fill="none" transform="matrix(1 0 0 1.01045 436 594.021)"/></g></svg>