<svg width="49" height="50" xmlns="http://www.w3.org/2000/svg" xmlns:xlink="http://www.w3.org/1999/xlink" xml:space="preserve" overflow="hidden"><g transform="translate(-632 -267)"><path d="M0.704738 32.8739 48.2538 32.8739" stroke="#282E36" stroke-width="1.24365" stroke-linecap="round" stroke-linejoin="round" fill="none" transform="matrix(1 0 0 1.02041 632 267.042)"/><path d="M18.6963 39.5482 17.7014 47.3418" stroke="#282E36" stroke-width="1.24365" stroke-linecap="round" stroke-linejoin="round" fill="none" transform="matrix(1 0 0 1.02041 632 267.042)"/><path d="M30.2623 39.5482 31.2572 47.3418" stroke="#282E36" stroke-width="1.24365" stroke-linecap="round" stroke-linejoin="round" fill="none" transform="matrix(1 0 0 1.02041 632 267.042)"/><path d="M13.5973 47.3833 35.4027 47.3833" stroke="#282E36" stroke-width="1.24365" stroke-linecap="round" stroke-linejoin="round" fill="none" transform="matrix(1 0 0 1.02041 632 267.042)"/><path d="M43.6937 36.2733C43.6937 36.4564 43.5453 36.6049 43.3621 36.6049 43.1789 36.6049 43.0305 36.4564 43.0305 36.2733 43.0305 36.0901 43.1789 35.9416 43.3621 35.9416 43.5453 35.9416 43.6937 36.0901 43.6937 36.2733Z" stroke="#282E36" stroke-width="1.24365" stroke-linecap="round" stroke-linejoin="round" fill="none" transform="matrix(1 0 0 1.02041 632 267.042)"/><path d="M45.1447 39.5068 3.85533 39.5068C2.11421 39.5068 0.663283 38.0973 0.663283 36.3147L0.663283 4.72589C0.663283 2.98477 2.07276 1.53384 3.85533 1.53384L45.1447 1.53384C46.8858 1.53384 48.3367 2.94332 48.3367 4.72589L48.3367 36.3562C48.3367 38.0973 46.8858 39.5068 45.1447 39.5068Z" stroke="#282E36" stroke-width="1.24365" stroke-linecap="round" stroke-linejoin="round" fill="none" transform="matrix(1 0 0 1.02041 632 267.042)"/><path d="M28.3139 17.0795C28.3139 19.0714 26.6991 20.6861 24.7073 20.6861 22.7154 20.6861 21.1007 19.0714 21.1007 17.0795 21.1007 15.0877 22.7154 13.4729 24.7073 13.4729 26.6991 13.4729 28.3139 15.0877 28.3139 17.0795Z" stroke="#1596D1" stroke-width="1.24365" stroke-linecap="round" stroke-linejoin="round" fill="none" transform="matrix(1 0 0 1.02041 632 267.042)"/><path d="M31.7961 18.2403C31.9619 17.4941 31.9619 16.7479 31.7961 15.9602L33.4129 14.3849C33.6201 14.1777 33.6616 13.9289 33.4958 13.6802L31.9205 10.9442C31.7547 10.6954 31.5059 10.654 31.2986 10.654L29.0601 11.2758C28.4797 10.8198 27.8164 10.4467 27.1531 10.198L26.6142 7.91794C26.5728 7.62775 26.324 7.46193 26.0753 7.46193L22.9662 7.46193C22.676 7.46193 22.4687 7.6692 22.4272 7.91794L21.8469 10.2809C21.225 10.5711 20.6032 10.8613 20.1058 11.3173L17.7014 10.6125C17.4112 10.5296 17.1624 10.654 17.0795 10.9027L15.5042 13.6802C15.3384 13.9289 15.4213 14.1777 15.5871 14.3849L17.3697 16.1261C17.2868 16.7479 17.2868 17.4112 17.3697 18.033L15.5457 19.8156C15.3384 20.0228 15.297 20.2716 15.4628 20.5203L17.0381 23.2563C17.2039 23.5051 17.4526 23.5465 17.6599 23.5465L20.0228 22.8418C20.5618 23.2563 21.1007 23.6294 21.764 23.8782L22.3443 26.2411C22.3858 26.5313 22.6345 26.6971 22.8832 26.6971L26.0338 26.6971C26.324 26.6971 26.5313 26.4898 26.5728 26.2411L27.1117 23.9611C27.8164 23.6709 28.4382 23.3393 28.9772 22.8832L31.2157 23.5051C31.5059 23.588 31.7547 23.4636 31.8376 23.2149L33.4129 20.4789C33.5787 20.2301 33.4958 19.9814 33.33 19.7741L31.7961 18.2403Z" stroke="#1596D1" stroke-width="1.24365" stroke-linecap="round" stroke-linejoin="round" fill="none" transform="matrix(1 0 0 1.02041 632 267.042)"/></g></svg>