<svg width="49" height="49" xmlns="http://www.w3.org/2000/svg" xmlns:xlink="http://www.w3.org/1999/xlink" xml:space="preserve" overflow="hidden"><g transform="translate(-77 -593)"><path d="M107.304 619.577 122.874 619.577C123.332 619.577 123.703 619.948 123.703 620.406L123.703 638.265 123.703 638.265 106.475 638.265 106.475 638.265 106.475 620.406C106.475 619.948 106.846 619.577 107.304 619.577Z" stroke="#282E36" stroke-width="1.24365" stroke-linecap="round" stroke-linejoin="round" fill="none"/><path d="M107.805 638.265 111.636 638.265 111.636 641.378 107.805 641.378Z" stroke="#282E36" stroke-width="1.24365" stroke-linecap="round" stroke-linejoin="round" fill="none"/><path d="M118.546 638.265 122.377 638.265 122.377 641.378 118.546 641.378Z" stroke="#282E36" stroke-width="1.24365" stroke-linecap="round" stroke-linejoin="round" fill="none"/><path d="M106.475 628.921 123.703 628.921" stroke="#282E36" stroke-width="1.24365" stroke-linecap="round" stroke-linejoin="round" fill="none"/><path d="M110.84 634.111C110.84 634.683 110.376 635.147 109.803 635.147 109.231 635.147 108.767 634.683 108.767 634.111 108.767 633.539 109.231 633.075 109.803 633.075 110.376 633.075 110.84 633.539 110.84 634.111Z" stroke="#1596D1" stroke-width="1.24365" stroke-linecap="round" stroke-linejoin="round" fill="none"/><path d="M121.224 634.111C121.224 634.683 120.76 635.147 120.188 635.147 119.616 635.147 119.152 634.683 119.152 634.111 119.152 633.539 119.616 633.075 120.188 633.075 120.76 633.075 121.224 633.539 121.224 634.111Z" stroke="#1596D1" stroke-width="1.24365" stroke-linecap="round" stroke-linejoin="round" fill="none"/><path d="M124.342 634.111 125.378 634.111 125.378 612.31C125.378 611.165 124.45 610.237 123.305 610.237L106.69 610.237C105.545 610.237 104.617 611.165 104.617 612.31L104.617 634.111 105.654 634.111" stroke="#282E36" stroke-width="1.24365" stroke-linecap="round" stroke-linejoin="round" fill="none"/><path d="M101.5 635.147 79.6987 635.147C78.554 635.147 77.626 634.219 77.626 633.075L77.626 605.022 97.3462 593.622 117.075 605.022 117.075 610.233" stroke="#282E36" stroke-width="1.24365" stroke-linecap="round" stroke-linejoin="round" fill="none"/><path d="M82.8037 635.147 82.8037 612.31C82.8037 611.165 83.7317 610.237 84.8765 610.237L101.5 610.237" stroke="#282E36" stroke-width="1.24365" stroke-linecap="round" stroke-linejoin="round" fill="none"/><path d="M89.6563 603.841 105.036 603.841" stroke="#1596D1" stroke-width="1.24365" stroke-linecap="round" stroke-linejoin="round" fill="none"/></g></svg>