<svg width="64" height="36" xmlns="http://www.w3.org/2000/svg" xmlns:xlink="http://www.w3.org/1999/xlink" xml:space="preserve" overflow="hidden"><g transform="translate(-548 -600)"><path d="M5.41056 19.2508 27.1126 19.2508" stroke="#1596D1" stroke-width="0.896777" stroke-linecap="round" stroke-linejoin="round" fill="none" transform="matrix(1 0 0 1.00313 548 600.008)"/><path d="M5.41056 24.482 27.1126 24.482" stroke="#1596D1" stroke-width="0.896777" stroke-linecap="round" stroke-linejoin="round" fill="none" transform="matrix(1 0 0 1.00313 548 600.008)"/><path d="M5.41056 29.7431 27.1126 29.7431" stroke="#1596D1" stroke-width="0.896777" stroke-linecap="round" stroke-linejoin="round" fill="none" transform="matrix(1 0 0 1.00313 548 600.008)"/><path d="M0.538066 35.333 0.538066 0.538066 32.0149 9.98412 32.0149 35.333" stroke="#282E36" stroke-width="0.896777" stroke-linecap="round" stroke-linejoin="round" fill="none" transform="matrix(1 0 0 1.00313 548 600.008)"/><path d="M4.93227 35.333 4.93227 13.9897 27.5908 13.9897 27.5908 35.333" stroke="#282E36" stroke-width="0.896777" stroke-linecap="round" stroke-linejoin="round" fill="none" transform="matrix(1 0 0 1.00313 548 600.008)"/><path d="M32.0149 9.92433 32.0149 0.538066 63.4918 9.98412 63.4918 35.333" stroke="#282E36" stroke-width="0.896777" stroke-linecap="round" stroke-linejoin="round" fill="none" transform="matrix(1 0 0 1.00313 548 600.008)"/><path d="M36.439 35.333 36.439 13.9897 59.0677 13.9897 59.0677 35.333" stroke="#282E36" stroke-width="0.896777" stroke-linecap="round" stroke-linejoin="round" fill="none" transform="matrix(1 0 0 1.00313 548 600.008)"/><path d="M40.3251 29.9823 45.2872 29.9823 45.2872 34.9444 40.3251 34.9444Z" stroke="#1596D1" stroke-width="0.896777" stroke-linecap="round" stroke-linejoin="round" fill="none" transform="matrix(1 0 0 1.00313 548 600.008)"/><path d="M42.8361 24.9902 47.7982 24.9902 47.7982 29.9524 42.8361 29.9524Z" stroke="#1596D1" stroke-width="0.896777" stroke-linecap="round" stroke-linejoin="round" fill="none" transform="matrix(1 0 0 1.00313 548 600.008)"/><path d="M47.7982 24.9902 52.7604 24.9902 52.7604 29.9524 47.7982 29.9524Z" stroke="#1596D1" stroke-width="0.896777" stroke-linecap="round" stroke-linejoin="round" fill="none" transform="matrix(1 0 0 1.00313 548 600.008)"/><path d="M45.2872 29.9823 50.2494 29.9823 50.2494 34.9444 45.2872 34.9444Z" stroke="#1596D1" stroke-width="0.896777" stroke-linecap="round" stroke-linejoin="round" fill="none" transform="matrix(1 0 0 1.00313 548 600.008)"/><path d="M50.2195 29.9823 55.1817 29.9823 55.1817 34.9444 50.2195 34.9444Z" stroke="#1596D1" stroke-width="0.896777" stroke-linecap="round" stroke-linejoin="round" fill="none" transform="matrix(1 0 0 1.00313 548 600.008)"/></g></svg>