<svg width="169" height="28" xmlns="http://www.w3.org/2000/svg" xmlns:xlink="http://www.w3.org/1999/xlink" xml:space="preserve" overflow="hidden"><g transform="translate(268 -147)"><path d="M5.61153 16.7621 0 0 3.71247 0 7.12518 11.2741 10.976 0 13.1271 0 17.0471 11.2741 20.4153 0 24.1278 0 18.536 16.7621 15.6701 16.7621 12.0746 5.78612 8.47906 16.7621 5.61153 16.7621Z" fill="#282E36" transform="matrix(1.02607 0 0 1 -268 147)"/><path d="M35.7609 11.704 26.3859 11.704C26.8405 13.4532 28.0576 14.3376 30.0275 14.3376 31.3798 14.3376 32.9856 13.8172 34.0579 13.0892L35.3393 15.3325C33.7598 16.464 31.9447 17.0355 29.8842 17.0355 27.6871 17.0355 26.0087 16.3981 24.8459 15.1496 23.6748 13.9012 23.1033 12.3595 23.1033 10.5659 23.1033 8.68 23.7012 7.14 24.9101 5.91623 26.1256 4.69412 27.6805 4.07647 29.6042 4.07647 31.4111 4.07647 32.9264 4.64141 34.0974 5.75318 35.2685 6.86494 35.8598 8.36047 35.8598 10.2908 35.8713 10.7289 35.8252 11.2033 35.7609 11.704ZM26.3842 9.324 32.7304 9.324C32.4306 7.71153 31.2612 6.73647 29.6158 6.73647 27.9901 6.73647 26.7746 7.71153 26.3842 9.324Z" fill="#282E36" transform="matrix(1.02607 0 0 1 -268 147)"/><path d="M58.212 16.0341C57.1776 16.716 55.9687 17.0553 54.5259 17.0553 51.6584 17.0553 50.1694 15.3786 50.1694 12.1784L50.1694 7.07412 48.1271 7.07412 48.1271 4.396 50.1875 4.396 50.1875 1.15129 53.3927 0.0197647 53.3927 4.396 57.5153 4.396 57.5153 7.07412 53.3927 7.07412 53.3927 11.9708C53.3927 13.4202 53.9906 14.1482 55.1551 14.1482 55.7727 14.1482 56.4809 13.9473 57.2419 13.5108L58.212 16.0341Z" fill="#282E36" transform="matrix(1.02607 0 0 1 -268 147)"/><path d="M71.5729 11.704 62.2045 11.704C62.6591 13.4532 63.8762 14.3376 65.8461 14.3376 67.1984 14.3376 68.8042 13.8172 69.8765 13.0892L71.1579 15.3325C69.5784 16.464 67.7633 17.0355 65.7028 17.0355 63.5056 17.0355 61.8273 16.3981 60.6645 15.1496 59.4934 13.9012 58.9219 12.3595 58.9219 10.5659 58.9219 8.68 59.5198 7.14 60.7287 5.91623 61.9442 4.69412 63.4991 4.07647 65.4228 4.07647 67.2296 4.07647 68.7449 4.64141 69.916 5.75318 71.0871 6.86494 71.6784 8.36047 71.6784 10.2908 71.6899 10.7289 71.6438 11.2033 71.5729 11.704ZM62.2028 9.324 68.5489 9.324C68.2492 7.71153 67.0798 6.73647 65.4344 6.73647 63.8038 6.73647 62.5932 7.71153 62.2028 9.324Z" fill="#282E36" transform="matrix(1.02607 0 0 1 -268 147)"/><path d="M73.9134 16.7621 73.9134 4.40259 77.0082 4.40259 77.0082 6.06118C77.7626 4.72212 78.9139 4.06494 80.4473 4.06494 80.9546 4.06494 81.4553 4.15553 81.9626 4.33835L81.6892 7.40024C81.1621 7.24376 80.6548 7.15318 80.2002 7.15318 78.3671 7.15318 77.1515 8.33082 77.1515 10.8986L77.1515 16.7704 73.9134 16.7704 73.9134 16.7621Z" fill="#282E36" transform="matrix(1.02607 0 0 1 -268 147)"/><path d="M83.5553 16.7621 83.5553 4.40259 86.716 4.40259 86.716 6.12541C87.3798 4.92306 88.8687 4.06494 90.636 4.06494 91.9882 4.06494 93.1593 4.51953 94.0948 5.404 95.0303 6.28847 95.5195 7.55671 95.5195 9.21365L95.5195 16.7621 92.288 16.7621 92.288 10.0718C92.288 8.10188 91.2339 7.00988 89.6544 7.00988 87.9381 7.00988 86.7868 8.30447 86.7868 10.1376L86.7868 16.7638 83.5553 16.7638Z" fill="#282E36" transform="matrix(1.02607 0 0 1 -268 147)"/><path d="M107.802 4.40259 110.87 4.40259 110.87 16.7621 107.802 16.7621 107.802 15.3325C106.723 16.4904 105.395 17.0553 103.816 17.0553 102.027 17.0553 100.538 16.4442 99.3687 15.1958 98.1993 13.9473 97.6261 12.3809 97.6261 10.5214 97.6261 8.66188 98.224 7.12024 99.3885 5.91788 100.56 4.69577 102.048 4.07812 103.809 4.07812 105.369 4.07812 106.696 4.66941 107.795 5.87341L107.795 4.40424 107.802 4.40424ZM106.84 8.04918C106.176 7.34753 105.351 7.00824 104.343 7.00824 103.308 7.00824 102.49 7.34588 101.82 8.04918 101.176 8.75082 100.858 9.59082 100.858 10.5659 100.858 11.5607 101.176 12.4056 101.846 13.1089 102.516 13.8106 103.335 14.1499 104.343 14.1499 105.351 14.1499 106.176 13.8122 106.84 13.1089 107.504 12.4073 107.848 11.5673 107.848 10.5659 107.846 9.59741 107.502 8.75741 106.84 8.04918Z" fill="#282E36" transform="matrix(1.02607 0 0 1 -268 147)"/><path d="M114.973 15.2205C113.738 14.0181 113.12 12.4501 113.12 10.5708 113.12 8.68494 113.738 7.12518 114.999 5.92118 116.261 4.69906 117.867 4.08141 119.837 4.08141 122.38 4.08141 124.628 5.32988 125.656 7.52706L123.068 8.932C122.314 7.68353 121.235 7.04612 119.883 7.04612 118.848 7.04612 118.004 7.38377 117.341 8.06729 116.678 8.72447 116.333 9.56282 116.333 10.5642 116.333 11.5854 116.651 12.4238 117.322 13.1073 117.985 13.7645 118.837 14.1021 119.819 14.1021 121.125 14.1021 122.452 13.328 123.004 12.2426L125.618 13.7645C124.539 15.7607 122.322 17.0289 119.753 17.0289 117.794 17.0355 116.208 16.4245 114.973 15.2205Z" fill="#282E36" transform="matrix(1.02607 0 0 1 -268 147)"/><path d="M127.599 16.7621 127.599 1.15788 130.74 0.0263529 130.74 6.01506C131.404 4.90329 132.918 4.06494 134.68 4.06494 136.032 4.06494 137.177 4.51953 138.119 5.404 139.055 6.28847 139.537 7.55671 139.537 9.21365L139.537 16.7621 136.306 16.7621 136.306 10.0718C136.306 8.10188 135.271 7.00988 133.692 7.00988 131.976 7.00988 130.824 8.30447 130.824 10.1376L130.824 16.7638 127.599 16.7638Z" fill="#282E36" transform="matrix(1.02607 0 0 1 -268 147)"/><path d="M154.316 11.704 144.948 11.704C145.402 13.4532 146.62 14.3376 148.589 14.3376 149.942 14.3376 151.548 13.8172 152.62 13.0892L153.901 15.3325C152.322 16.464 150.507 17.0355 148.446 17.0355 146.249 17.0355 144.571 16.3981 143.408 15.1496 142.237 13.9012 141.665 12.3595 141.665 10.5659 141.665 8.68 142.263 7.14 143.472 5.91623 144.688 4.69412 146.242 4.07647 148.166 4.07647 149.973 4.07647 151.488 4.64141 152.659 5.75318 153.83 6.86494 154.422 8.36047 154.422 10.2908 154.433 10.7289 154.387 11.2033 154.316 11.704ZM144.946 9.324 151.292 9.324C150.992 7.71153 149.823 6.73647 148.178 6.73647 146.545 6.73647 145.336 7.71153 144.946 9.324Z" fill="#282E36" transform="matrix(1.02607 0 0 1 -268 147)"/><path d="M156.657 16.7621 156.657 4.40259 159.752 4.40259 159.752 6.06118C160.506 4.72212 161.657 4.06494 163.191 4.06494 163.698 4.06494 164.199 4.15553 164.706 4.33835L164.432 7.40024C163.905 7.24376 163.398 7.15318 162.944 7.15318 161.11 7.15318 159.895 8.33082 159.895 10.8986L159.895 16.7704 156.657 16.7704 156.657 16.7621Z" fill="#282E36" transform="matrix(1.02607 0 0 1 -268 147)"/><path d="M45.0586 9.98118C44.7144 9.79835 43.7064 9.38988 42.0544 8.77882 41.3198 8.53176 40.9558 8.16776 40.9558 7.64729 40.9558 7.08235 41.5273 6.60635 42.3739 6.60635 43.4016 6.60635 44.3635 7.01647 45.2348 7.82847L46.6002 5.53412C45.4951 4.51294 44.1099 3.99906 42.4645 3.99906 41.0661 3.99906 39.9214 4.33671 39.0699 5.04 38.2249 5.74165 37.7885 6.62612 37.7885 7.71812 37.7885 9.16753 38.4967 10.2348 39.9412 10.9167 40.2146 11.0534 40.7416 11.2807 41.5471 11.5739 42.3475 11.8671 42.8285 12.0482 43.036 12.1388 43.6339 12.4122 43.9271 12.7762 43.9271 13.2045 43.9271 13.9061 43.1925 14.4068 42.2108 14.4068 40.9492 14.4068 39.4932 14.0231 38.5955 12.964L37.184 15.3374C38.4127 16.6831 40.1816 17.0866 42.1911 17.0866 43.68 17.0866 44.8955 16.7226 45.7866 15.9748 46.704 15.2271 47.1586 14.2718 47.1586 13.1139 47.1718 11.7485 46.4553 10.7092 45.0586 9.98118Z" fill="#282E36" transform="matrix(1.02607 0 0 1 -268 147)"/><path d="M84.4645 23.4409 86.5645 26.1998 86.5645 23.4409 87.5379 23.4409 87.5379 27.9226 86.6995 27.9226 84.5287 25.0732 84.5287 27.9226 83.5553 27.9226 83.5553 23.4409 84.4645 23.4409Z" fill="#1596D1" transform="matrix(1.02607 0 0 1 -268 147)"/><path d="M88.3631 25.6826C88.3631 24.4078 89.3678 23.3652 90.7513 23.3652 92.1348 23.3652 93.1264 24.3962 93.1264 25.6826 93.1264 26.9574 92.1217 28 90.7381 28 89.3546 28 88.3631 26.9689 88.3631 25.6826ZM92.0953 25.6826C92.0953 24.9151 91.532 24.2744 90.7381 24.2744 89.9442 24.2744 89.3941 24.9019 89.3941 25.6826 89.3941 26.4501 89.9574 27.0908 90.7513 27.0908 91.5435 27.0908 92.0953 26.4633 92.0953 25.6826Z" fill="#1596D1" transform="matrix(1.02607 0 0 1 -268 147)"/><path d="M94.8624 23.4409 96.9624 26.1998 96.9624 23.4409 97.9358 23.4409 97.9358 27.9226 97.0974 27.9226 94.9266 25.0732 94.9266 27.9226 93.9532 27.9226 93.9532 23.4409 94.8624 23.4409Z" fill="#1596D1" transform="matrix(1.02607 0 0 1 -268 147)"/><path d="M98.6786 27.2704 99.2616 26.572C99.6652 26.9047 100.087 27.1155 100.599 27.1155 101.003 27.1155 101.246 26.9558 101.246 26.6807 101.246 26.4304 101.093 26.3035 100.344 26.1108 99.4412 25.8802 98.8581 25.6299 98.8581 24.7273 98.8581 23.9136 99.5104 23.3767 100.426 23.3767 101.08 23.3767 101.637 23.5809 102.091 23.9466L101.579 24.6894C101.182 24.4144 100.792 24.248 100.415 24.248 100.037 24.248 99.8381 24.4209 99.8381 24.6515 99.8381 24.9464 100.031 25.0419 100.805 25.2412 101.714 25.4784 102.226 25.8045 102.226 26.5984 102.226 27.4878 101.548 27.9868 100.581 27.9868 99.9007 27.9868 99.2155 27.7496 98.6786 27.2704Z" fill="#1596D1" transform="matrix(1.02607 0 0 1 -268 147)"/><path d="M102.683 24.3501 102.683 23.4409 106.395 23.4409 106.395 24.3501 105.031 24.3501 105.031 27.9226 104.045 27.9226 104.045 24.3501 102.683 24.3501Z" fill="#1596D1" transform="matrix(1.02607 0 0 1 -268 147)"/><path d="M106.743 25.6826C106.743 24.4078 107.747 23.3652 109.131 23.3652 110.514 23.3652 111.506 24.3962 111.506 25.6826 111.506 26.9574 110.501 28 109.118 28 107.734 28 106.743 26.9689 106.743 25.6826ZM110.475 25.6826C110.475 24.9151 109.912 24.2744 109.118 24.2744 108.324 24.2744 107.774 24.9019 107.774 25.6826 107.774 26.4501 108.337 27.0908 109.131 27.0908 109.925 27.0908 110.475 26.4633 110.475 25.6826Z" fill="#1596D1" transform="matrix(1.02607 0 0 1 -268 147)"/><path d="M114.164 23.4409C115.233 23.4409 115.88 24.0751 115.88 25.0024 115.88 26.04 115.073 26.5769 114.069 26.5769L113.319 26.5769 113.319 27.9209 112.333 27.9209 112.333 23.4393 114.164 23.4393ZM114.882 25.0106C114.882 24.5692 114.574 24.332 114.082 24.332L113.319 24.332 113.319 25.7024 114.1 25.7024C114.594 25.7024 114.882 25.4075 114.882 25.0106Z" fill="#1596D1" transform="matrix(1.02607 0 0 1 -268 147)"/><path d="M119.535 23.4409 119.535 27.9226 118.549 27.9226 118.549 23.4409 119.535 23.4409Z" fill="#1596D1" transform="matrix(1.02607 0 0 1 -268 147)"/><path d="M121.52 23.4409 123.62 26.1998 123.62 23.4409 124.593 23.4409 124.593 27.9226 123.755 27.9226 121.584 25.0732 121.584 27.9226 120.611 27.9226 120.611 23.4409 121.52 23.4409Z" fill="#1596D1" transform="matrix(1.02607 0 0 1 -268 147)"/><path d="M126.57 23.4409 128.67 26.1998 128.67 23.4409 129.643 23.4409 129.643 27.9226 128.805 27.9226 126.634 25.0732 126.634 27.9226 125.661 27.9226 125.661 23.4409 126.57 23.4409Z" fill="#1596D1" transform="matrix(1.02607 0 0 1 -268 147)"/><path d="M130.467 25.6826C130.467 24.4078 131.472 23.3652 132.855 23.3652 134.239 23.3652 135.23 24.3962 135.23 25.6826 135.23 26.9574 134.225 28 132.842 28 131.46 28 130.467 26.9689 130.467 25.6826ZM134.199 25.6826C134.199 24.9151 133.636 24.2744 132.842 24.2744 132.048 24.2744 131.498 24.9019 131.498 25.6826 131.498 26.4501 132.061 27.0908 132.855 27.0908 133.649 27.0908 134.199 26.4633 134.199 25.6826Z" fill="#1596D1" transform="matrix(1.02607 0 0 1 -268 147)"/><path d="M136.49 23.4409 137.661 26.5967 138.832 23.4409 139.895 23.4409 138.083 27.9539 137.212 27.9539 135.4 23.4409 136.49 23.4409Z" fill="#1596D1" transform="matrix(1.02607 0 0 1 -268 147)"/><path d="M142.485 23.4096 144.406 27.9226 143.375 27.9226 142.965 26.9179 141.071 26.9179 140.66 27.9226 139.656 27.9226 141.576 23.4096 142.485 23.4096ZM142.019 24.5939 141.425 26.0466 142.616 26.0466 142.019 24.5939Z" fill="#1596D1" transform="matrix(1.02607 0 0 1 -268 147)"/><path d="M144.141 24.3501 144.141 23.4409 147.855 23.4409 147.855 24.3501 146.491 24.3501 146.491 27.9226 145.504 27.9226 145.504 24.3501 144.141 24.3501Z" fill="#1596D1" transform="matrix(1.02607 0 0 1 -268 147)"/><path d="M149.494 23.4409 149.494 27.9226 148.507 27.9226 148.507 23.4409 149.494 23.4409Z" fill="#1596D1" transform="matrix(1.02607 0 0 1 -268 147)"/><path d="M150.34 25.6826C150.34 24.4078 151.345 23.3652 152.728 23.3652 154.112 23.3652 155.104 24.3962 155.104 25.6826 155.104 26.9574 154.099 28 152.715 28 151.333 28 150.34 26.9689 150.34 25.6826ZM154.072 25.6826C154.072 24.9151 153.509 24.2744 152.715 24.2744 151.921 24.2744 151.371 24.9019 151.371 25.6826 151.371 26.4501 151.935 27.0908 152.728 27.0908 153.522 27.0908 154.072 26.4633 154.072 25.6826Z" fill="#1596D1" transform="matrix(1.02607 0 0 1 -268 147)"/><path d="M156.841 23.4409 158.941 26.1998 158.941 23.4409 159.915 23.4409 159.915 27.9226 159.076 27.9226 156.905 25.0732 156.905 27.9226 155.932 27.9226 155.932 23.4409 156.841 23.4409Z" fill="#1596D1" transform="matrix(1.02607 0 0 1 -268 147)"/></g></svg>